{"accessors":[{"bufferView":0,"count":36,"componentType":5123,"type":"SCALAR","min":0,"max":23},{"bufferView":1,"count":24,"componentType":5126,"type":"VEC3","min":[-1.0,-1.0,-1.0],"max":[1.0,1.0,1.0]},{"bufferView":2,"count":24,"componentType":5126,"type":"VEC3","min":[-0.5,-0.5,-0.5],"max":[0.5,0.5,0.5]},{"bufferView":3,"count":24,"componentType":5126,"type":"VEC2","min":[0.0,0.0],"max":[6.0,1.0]}],"asset":{"version":"2.0"},"buffers":[{"byteLength":840,"uri":"BoxTextured0.bin"}],"bufferViews":[{"buffer":0,"byteLength":72,"byteOffset":0},{"buffer":0,"byteLength":288,"byteOffset":72},{"buffer":0,"byteLength":288,"byteOffset":360},{"buffer":0,"byteLength":192,"byteOffset":648}],"scene":0,"images":[{"mimeType":"image/png","uri":"CesiumLogoFlat.png"}],"materials":[{"alphaCutoff":0.0,"alphaMode":"OPAQUE","doubleSided":false,"name":"Texture","pbrMetallicRoughness":{"baseColorFactor":[1.0,1.0,1.0,1.0],"baseColorTexture":{"index":0,"texCoord":0},"metallicFactor":0.0,"roughnessFactor":1.0},"emissiveFactor":[0.0,0.0,0.0]}],"meshes":[{"name":"Mesh","primitives":[{"attributes":{"POSITION":2,"NORMAL":1,"TEXCOORD_0":3},"indices":0}]}],"nodes":[{"children":[1]},{"mesh":0}],"samplers":[{"magFilter":9729,"minFilter":9986,"wrapS":10497,"wrapT":10497}],"scenes":[{"nodes":[0]}],"textures":[{"sampler":0,"source":0}]}